<?xml version="1.0" encoding="utf-8"?>
<!-- Generator: Adobe Illustrator 22.0.0, SVG Export Plug-In . SVG Version: 6.00 Build 0)  -->
<svg version="1.1" id="Layer_1" xmlns="http://www.w3.org/2000/svg" xmlns:xlink="http://www.w3.org/1999/xlink" x="0px" y="0px"
	 viewBox="0 0 100 80" style="enable-background:new 0 0 100 80;" xml:space="preserve">
<g>
	<path d="M28.4,48.6h17.2c0.4,0,0.7,0.3,0.7,0.7v1.2c0,0.3,0.2,0.5,0.5,0.5h6.6c0.3,0,0.5-0.2,0.5-0.5v-1.2c0-0.4,0.3-0.7,0.7-0.7
		h17.2c2.9,0,5.3-2.4,5.3-5.3V18.2c0-2.9-2.4-5.3-5.3-5.3H28.4c-2.9,0-5.3,2.4-5.3,5.3v25.2C23.1,46.3,25.4,48.6,28.4,48.6z
		 M26.8,19c0-1.2,1-2.2,2.2-2.2h41.9c1.2,0,2.2,1,2.2,2.2v23.6c0,1.2-1,2.2-2.2,2.2H29.1c-1.2,0-2.2-1-2.2-2.2L26.8,19L26.8,19z"/>
	<path d="M74.9,65.5l-1.8-10.3c-0.2-0.7-0.8-1.1-1.6-1.1H28.4c-0.8,0-1.4,0.5-1.6,1.1l-1.8,10.3c-0.2,0.8,0.6,1.5,1.6,1.5h46.7
		C74.3,67.1,75.1,66.4,74.9,65.5z M45.7,56.3c0-0.2,0.2-0.4,0.5-0.4h2.4c0.2,0,0.5,0.2,0.5,0.4v1.3c0,0.2-0.2,0.4-0.5,0.4h-2.4
		c-0.2,0-0.5-0.2-0.5-0.4C45.7,57.6,45.7,56.3,45.7,56.3z M45.7,59.9c0-0.2,0.2-0.4,0.5-0.4h2.4c0.2,0,0.5,0.2,0.5,0.4v1.3
		c0,0.2-0.2,0.4-0.5,0.4h-2.4c-0.2,0-0.5-0.2-0.5-0.4C45.7,61.2,45.7,59.9,45.7,59.9z M40.3,56.3c0-0.2,0.2-0.4,0.5-0.4h2.4
		c0.2,0,0.5,0.2,0.5,0.4v1.3c0,0.2-0.2,0.4-0.5,0.4h-2.4c-0.2,0-0.5-0.2-0.5-0.4C40.3,57.6,40.3,56.3,40.3,56.3z M40.3,59.9
		c0-0.2,0.2-0.4,0.5-0.4h2.4c0.2,0,0.5,0.2,0.5,0.4v1.3c0,0.2-0.2,0.4-0.5,0.4h-2.4c-0.2,0-0.5-0.2-0.5-0.4
		C40.3,61.2,40.3,59.9,40.3,59.9z M34.9,56.3c0-0.2,0.2-0.4,0.5-0.4h2.4c0.2,0,0.5,0.2,0.5,0.4v1.3c0,0.2-0.2,0.4-0.5,0.4h-2.4
		c-0.2,0-0.5-0.2-0.5-0.4V56.3z M34.9,59.9c0-0.2,0.2-0.4,0.5-0.4h2.4c0.2,0,0.5,0.2,0.5,0.4v1.3c0,0.2-0.2,0.4-0.5,0.4h-2.4
		c-0.2,0-0.5-0.2-0.5-0.4V59.9z M32.8,64.9c0,0.2-0.2,0.4-0.5,0.4h-2.4c-0.2,0-0.5-0.2-0.5-0.4v-1.3c0-0.2,0.2-0.4,0.5-0.4h2.4
		c0.2,0,0.5,0.2,0.5,0.4C32.8,63.6,32.8,64.9,32.8,64.9z M32.8,61.2c0,0.2-0.2,0.4-0.5,0.4h-2.4c-0.2,0-0.5-0.2-0.5-0.4v-1.3
		c0-0.2,0.2-0.4,0.5-0.4h2.4c0.2,0,0.5,0.2,0.5,0.4C32.8,59.9,32.8,61.2,32.8,61.2z M32.8,57.6c0,0.2-0.2,0.4-0.5,0.4h-2.4
		c-0.2,0-0.5-0.2-0.5-0.4v-1.3c0-0.2,0.2-0.4,0.5-0.4h2.4c0.2,0,0.5,0.2,0.5,0.4C32.8,56.3,32.8,57.6,32.8,57.6z M54.4,64.9
		c0,0.2-0.2,0.4-0.5,0.4H35.3c-0.2,0-0.5-0.2-0.5-0.4v-1.3c0-0.2,0.2-0.4,0.5-0.4h18.6c0.2,0,0.5,0.2,0.5,0.4
		C54.4,63.6,54.4,64.9,54.4,64.9z M54.4,61.2c0,0.2-0.2,0.4-0.5,0.4h-2.4c-0.2,0-0.5-0.2-0.5-0.4v-1.3c0-0.2,0.2-0.4,0.5-0.4h2.4
		c0.2,0,0.5,0.2,0.5,0.4V61.2z M54.4,57.6c0,0.2-0.2,0.4-0.5,0.4h-2.4c-0.2,0-0.5-0.2-0.5-0.4v-1.3c0-0.2,0.2-0.4,0.5-0.4h2.4
		c0.2,0,0.5,0.2,0.5,0.4V57.6z M59.8,64.9c0,0.2-0.2,0.4-0.5,0.4h-2.4c-0.2,0-0.5-0.2-0.5-0.4v-1.3c0-0.2,0.2-0.4,0.5-0.4h2.4
		c0.2,0,0.5,0.2,0.5,0.4V64.9z M59.8,61.2c0,0.2-0.2,0.4-0.5,0.4h-2.4c-0.2,0-0.5-0.2-0.5-0.4v-1.3c0-0.2,0.2-0.4,0.5-0.4h2.4
		c0.2,0,0.5,0.2,0.5,0.4V61.2z M59.8,57.6c0,0.2-0.2,0.4-0.5,0.4h-2.4c-0.2,0-0.5-0.2-0.5-0.4v-1.3c0-0.2,0.2-0.4,0.5-0.4h2.4
		c0.2,0,0.5,0.2,0.5,0.4V57.6z M65.1,64.9c0,0.2-0.2,0.4-0.5,0.4h-2.4c-0.2,0-0.5-0.2-0.5-0.4v-1.3c0-0.2,0.2-0.4,0.5-0.4h2.4
		c0.2,0,0.5,0.2,0.5,0.4V64.9z M65.1,61.2c0,0.2-0.2,0.4-0.5,0.4h-2.4c-0.2,0-0.5-0.2-0.5-0.4v-1.3c0-0.2,0.2-0.4,0.5-0.4h2.4
		c0.2,0,0.5,0.2,0.5,0.4V61.2z M65.1,57.6c0,0.2-0.2,0.4-0.5,0.4h-2.4c-0.2,0-0.5-0.2-0.5-0.4v-1.3c0-0.2,0.2-0.4,0.5-0.4h2.4
		c0.2,0,0.5,0.2,0.5,0.4V57.6z M70.5,64.9c0,0.2-0.2,0.4-0.5,0.4h-2.4c-0.2,0-0.5-0.2-0.5-0.4v-1.3c0-0.2,0.2-0.4,0.5-0.4h2.4
		c0.2,0,0.5,0.2,0.5,0.4V64.9z M70.5,61.2c0,0.2-0.2,0.4-0.5,0.4h-2.4c-0.2,0-0.5-0.2-0.5-0.4v-1.3c0-0.2,0.2-0.4,0.5-0.4h2.4
		c0.2,0,0.5,0.2,0.5,0.4V61.2z M70.5,57.6c0,0.2-0.2,0.4-0.5,0.4h-2.4c-0.2,0-0.5-0.2-0.5-0.4v-1.3c0-0.2,0.2-0.4,0.5-0.4h2.4
		c0.2,0,0.5,0.2,0.5,0.4V57.6z"/>
</g>
</svg>
